<?xml version="1.0" encoding="utf-8"?>
<!-- Generator: Adobe Illustrator 22.0.1, SVG Export Plug-In . SVG Version: 6.00 Build 0)  -->
<svg version="1.1" id="レイヤー_1" xmlns="http://www.w3.org/2000/svg" xmlns:xlink="http://www.w3.org/1999/xlink" x="0px"
	 y="0px" width="60px" height="60px" viewBox="0 0 60 60" style="enable-background:new 0 0 60 60;" xml:space="preserve">
<style type="text/css">
	.st0{fill:#000;}
</style>
<path class="st0" d="M48,42.6c-2.5,0-4.7,1.1-6.3,2.8l-10.3-6l-11.5-6.6c0.3-0.9,0.5-1.8,0.5-2.8c0-0.9-0.1-1.8-0.4-2.6l11.4-6.6l10.4-6
	c1.6,1.7,3.8,2.7,6.2,2.7c4.7,0,8.5-3.8,8.5-8.5S52.7,0.5,48,0.5S39.5,4.3,39.5,9c0,0.6,0.1,1.2,0.2,1.8l-10.5,6l-11.7,6.8
	c-1.5-1.3-3.4-2.1-5.6-2.1c-4.7,0-8.5,3.8-8.5,8.5s3.8,8.5,8.5,8.5c2.1,0,4-0.7,5.4-2l11.9,6.9l10.5,6c-0.1,0.5-0.2,1.1-0.2,1.7
	c0,4.7,3.8,8.5,8.5,8.5s8.5-3.8,8.5-8.5C56.5,46.4,52.7,42.6,48,42.6z"/>
</svg>
