<?xml version="1.0" encoding="utf-8"?>
<!-- Generator: Adobe Illustrator 22.0.1, SVG Export Plug-In . SVG Version: 6.00 Build 0)  -->
<svg version="1.1" id="レイヤー_1" xmlns="http://www.w3.org/2000/svg" xmlns:xlink="http://www.w3.org/1999/xlink" x="0px"
	 y="0px" width="60px" height="60px" viewBox="0 0 60 60" style="enable-background:new 0 0 60 60;" xml:space="preserve">
<style type="text/css">
	.st0{fill:#000;}
</style>
<path class="st0" d="M7.218,2.527C7.198,2.552,7.177,2.577,7.157,2.602c-0.02,0.026-0.039,0.052-0.058,0.08C7.08,2.709,7.062,2.737,7.044,2.766
	L7.005,2.829L6.966,2.891L6.928,2.953L6.889,3.016L6.85,3.078L6.812,3.141L6.773,3.203L6.734,3.266L6.696,3.328L6.657,3.391
	L6.618,3.453L6.58,3.515L6.541,3.578L6.502,3.64L6.464,3.703L6.425,3.765L6.386,3.828L6.347,3.89L6.309,3.953L6.27,4.015
	L6.231,4.077L6.193,4.14L6.154,4.202L6.115,4.265L6.077,4.327L6.038,4.39L5.999,4.452L5.961,4.515L5.922,4.577L5.883,4.639
	L5.845,4.702L5.806,4.764C5.788,4.793,5.77,4.823,5.751,4.853c-0.019,0.03-0.037,0.061-0.057,0.092
	C5.675,4.975,5.656,5.007,5.636,5.039c-0.02,0.032-0.04,0.065-0.06,0.097c-0.02,0.033-0.041,0.066-0.062,0.1
	C5.493,5.27,5.472,5.304,5.45,5.339C5.429,5.373,5.408,5.408,5.386,5.444C5.364,5.479,5.342,5.514,5.32,5.55
	C5.298,5.586,5.276,5.622,5.253,5.658c-0.022,0.036-0.045,0.073-0.068,0.11C5.163,5.805,5.14,5.842,5.117,5.879
	C5.094,5.917,5.071,5.954,5.048,5.992c-0.023,0.038-0.046,0.075-0.07,0.113C4.955,6.142,4.931,6.18,4.908,6.218
	c-0.023,0.038-0.047,0.076-0.07,0.114c-0.023,0.038-0.047,0.076-0.07,0.114C4.744,6.485,4.72,6.523,4.697,6.561
	C4.673,6.6,4.65,6.638,4.627,6.676C4.603,6.714,4.58,6.752,4.557,6.789C4.533,6.827,4.51,6.865,4.487,6.903
	C4.464,6.94,4.441,6.978,4.418,7.015C4.395,7.052,4.372,7.089,4.35,7.126C4.327,7.163,4.304,7.2,4.282,7.236
	C4.26,7.272,4.238,7.309,4.216,7.344C4.194,7.38,4.172,7.416,4.15,7.451c-0.022,0.035-0.043,0.07-0.064,0.105
	C4.064,7.591,4.044,7.625,4.023,7.659c-0.021,0.034-0.041,0.067-0.062,0.1c-0.02,0.033-0.04,0.066-0.06,0.098
	C3.882,7.889,3.862,7.92,3.843,7.952S3.805,8.013,3.787,8.043c-0.018,0.03-0.037,0.06-0.054,0.089L3.704,8.184L3.676,8.236
	L3.648,8.288L3.619,8.34L3.591,8.392L3.562,8.444L3.534,8.495L3.505,8.547L3.477,8.599L3.449,8.651L3.42,8.703L3.392,8.755
	L3.363,8.807L3.335,8.859L3.306,8.911L3.278,8.963L3.25,9.015L3.221,9.066L3.193,9.118L3.164,9.17L3.136,9.222L3.107,9.274
	L3.079,9.326L3.051,9.378L3.022,9.43L2.994,9.482L2.965,9.534L2.937,9.586L2.908,9.637L2.88,9.689L2.852,9.741L2.823,9.793
	c-0.01,0.016-0.02,0.033-0.03,0.05c-0.01,0.017-0.02,0.034-0.03,0.052c-0.01,0.018-0.02,0.036-0.03,0.054
	c-0.01,0.018-0.02,0.037-0.03,0.056c-0.01,0.019-0.02,0.038-0.031,0.057c-0.01,0.019-0.02,0.039-0.03,0.059
	c-0.01,0.02-0.02,0.04-0.03,0.061c-0.01,0.02-0.02,0.041-0.03,0.062c-0.01,0.021-0.02,0.042-0.03,0.063
	c-0.01,0.021-0.02,0.043-0.029,0.064c-0.01,0.022-0.019,0.044-0.029,0.066c-0.01,0.022-0.019,0.044-0.028,0.067
	c-0.009,0.022-0.019,0.045-0.028,0.068c-0.009,0.023-0.018,0.045-0.027,0.068c-0.009,0.023-0.018,0.046-0.026,0.069
	c-0.009,0.023-0.017,0.046-0.025,0.07c-0.008,0.023-0.016,0.047-0.024,0.07c-0.008,0.024-0.016,0.047-0.023,0.071
	c-0.008,0.024-0.015,0.047-0.022,0.071c-0.007,0.024-0.014,0.047-0.021,0.071c-0.007,0.024-0.013,0.048-0.02,0.071
	c-0.006,0.024-0.013,0.048-0.018,0.072c-0.006,0.024-0.012,0.048-0.017,0.071c-0.005,0.024-0.011,0.048-0.016,0.071
	c-0.005,0.024-0.01,0.047-0.014,0.071c-0.004,0.024-0.008,0.047-0.012,0.071c-0.004,0.023-0.007,0.047-0.011,0.07
	c-0.003,0.023-0.006,0.047-0.009,0.07c-0.003,0.023-0.005,0.046-0.007,0.069c-0.002,0.023-0.004,0.046-0.005,0.068
	c-0.001,0.023-0.002,0.045-0.003,0.067c-0.001,0.022-0.001,0.044-0.001,0.066c-0.004,0.009-0.008,0.019-0.012,0.03
	c-0.004,0.011-0.008,0.024-0.013,0.038c-0.004,0.014-0.009,0.029-0.013,0.045c-0.004,0.016-0.009,0.034-0.013,0.052
	c-0.004,0.019-0.009,0.038-0.013,0.059c-0.004,0.021-0.009,0.042-0.013,0.065c-0.004,0.023-0.009,0.046-0.013,0.07
	c-0.004,0.024-0.009,0.049-0.013,0.075c-0.004,0.026-0.009,0.052-0.013,0.08c-0.004,0.027-0.009,0.055-0.013,0.084
	C2,12.526,1.996,12.555,1.991,12.585c-0.004,0.03-0.009,0.06-0.013,0.09c-0.004,0.031-0.009,0.062-0.013,0.093
	s-0.009,0.063-0.013,0.095c-0.004,0.032-0.008,0.064-0.013,0.096c-0.004,0.032-0.008,0.065-0.012,0.097
	c-0.004,0.033-0.008,0.065-0.012,0.098s-0.008,0.065-0.012,0.098c-0.004,0.033-0.008,0.065-0.011,0.098
	c-0.004,0.032-0.007,0.065-0.011,0.097c-0.004,0.032-0.007,0.064-0.01,0.095c-0.003,0.032-0.007,0.063-0.01,0.094
	c-0.003,0.031-0.006,0.061-0.009,0.091c-0.003,0.03-0.006,0.059-0.009,0.088c-0.003,0.029-0.005,0.057-0.008,0.085
	c-0.002,0.028-0.005,0.055-0.007,0.081c-0.002,0.026-0.004,0.052-0.006,0.077c-0.002,0.025-0.004,0.049-0.006,0.072
	c-0.002,0.023-0.003,0.045-0.005,0.067c-0.001,0.021-0.003,0.042-0.004,0.061c-0.001,0.019-0.002,0.038-0.003,0.055
	c-0.001,0.017-0.002,0.033-0.002,0.048c-0.002,0.07-0.005,0.138-0.007,0.206s-0.004,0.135-0.006,0.201
	c-0.002,0.066-0.003,0.132-0.004,0.197c-0.001,0.065-0.002,0.129-0.003,0.193c-0.001,0.064-0.001,0.126-0.001,0.189s0,0.124,0,0.185
	s0.001,0.122,0.002,0.182c0.001,0.06,0.002,0.119,0.004,0.178c0.001,0.059,0.003,0.118,0.005,0.176
	c0.002,0.058,0.004,0.116,0.007,0.173c0.003,0.057,0.006,0.114,0.009,0.171c0.003,0.057,0.007,0.113,0.011,0.169
	c0.004,0.056,0.008,0.112,0.013,0.167c0.005,0.056,0.01,0.111,0.015,0.166c0.005,0.055,0.011,0.11,0.017,0.165
	c0.006,0.055,0.013,0.11,0.019,0.164s0.014,0.109,0.022,0.164c0.008,0.055,0.016,0.109,0.024,0.163
	c0.008,0.054,0.017,0.109,0.026,0.164c0.009,0.055,0.019,0.109,0.029,0.164c0.01,0.055,0.021,0.11,0.031,0.165
	c0.011,0.055,0.022,0.11,0.034,0.166s0.024,0.111,0.037,0.167c0.013,0.056,0.026,0.112,0.04,0.168
	c0.014,0.056,0.028,0.113,0.042,0.17c0.015,0.057,0.03,0.114,0.045,0.172c0.016,0.058,0.032,0.116,0.048,0.175
	s0.034,0.118,0.051,0.177c0.018,0.06,0.036,0.12,0.054,0.18c0.019,0.061,0.038,0.122,0.058,0.184c0.02,0.062,0.04,0.124,0.061,0.187
	C2.509,19.872,2.531,19.936,2.552,20c0.045,0.132,0.09,0.263,0.135,0.393c0.045,0.13,0.09,0.258,0.135,0.385s0.09,0.253,0.136,0.378
	c0.045,0.125,0.091,0.249,0.137,0.371c0.046,0.123,0.092,0.244,0.138,0.365s0.092,0.241,0.139,0.36
	c0.046,0.119,0.093,0.237,0.14,0.354s0.094,0.234,0.142,0.35c0.048,0.116,0.096,0.231,0.144,0.346
	c0.048,0.115,0.097,0.229,0.146,0.342c0.049,0.113,0.099,0.226,0.149,0.339c0.05,0.113,0.101,0.225,0.152,0.336
	c0.051,0.112,0.103,0.223,0.155,0.334c0.052,0.111,0.105,0.222,0.158,0.333c0.053,0.111,0.107,0.221,0.162,0.332
	s0.11,0.221,0.166,0.331s0.112,0.221,0.17,0.331c0.057,0.111,0.115,0.221,0.174,0.332s0.118,0.222,0.179,0.333
	s0.122,0.223,0.184,0.335s0.125,0.224,0.189,0.337c0.064,0.113,0.129,0.226,0.194,0.339s0.132,0.228,0.2,0.343
	c0.068,0.115,0.136,0.23,0.206,0.346c0.07,0.116,0.14,0.233,0.212,0.35c0.072,0.118,0.145,0.236,0.219,0.355
	c0.074,0.119,0.149,0.239,0.225,0.36c0.076,0.121,0.154,0.243,0.232,0.366c0.079,0.123,0.159,0.247,0.24,0.372
	c0.081,0.125,0.164,0.251,0.247,0.379c0.084,0.128,0.169,0.256,0.255,0.386c0.086,0.13,0.174,0.261,0.263,0.394
	c0.178,0.243,0.355,0.484,0.532,0.722c0.176,0.238,0.352,0.473,0.527,0.705c0.175,0.232,0.348,0.462,0.521,0.688
	c0.173,0.226,0.344,0.45,0.515,0.67s0.34,0.438,0.507,0.653c0.168,0.215,0.334,0.426,0.5,0.634c0.165,0.208,0.329,0.414,0.491,0.616
	c0.162,0.202,0.323,0.401,0.482,0.597c0.159,0.196,0.316,0.389,0.472,0.578c0.156,0.189,0.309,0.376,0.461,0.558
	c0.152,0.183,0.302,0.362,0.45,0.539c0.148,0.176,0.294,0.349,0.438,0.518s0.286,0.335,0.425,0.498
	c0.139,0.163,0.277,0.322,0.412,0.477s0.267,0.308,0.397,0.456c0.13,0.148,0.257,0.293,0.382,0.435
	c0.125,0.141,0.247,0.279,0.367,0.413c0.12,0.134,0.236,0.264,0.35,0.391c0.114,0.127,0.225,0.249,0.333,0.368
	c0.108,0.119,0.213,0.234,0.316,0.345c0.068,0.074,0.132,0.144,0.198,0.215l-0.015,0.015c0.065,0.061,0.135,0.125,0.203,0.189
	c0.064,0.069,0.128,0.138,0.189,0.203c0.089,0.096,0.175,0.187,0.258,0.275l0.033-0.036c0.093,0.085,0.186,0.17,0.284,0.259
	c0.119,0.108,0.242,0.219,0.368,0.333c0.127,0.114,0.257,0.231,0.391,0.35c0.134,0.12,0.272,0.242,0.413,0.367
	s0.286,0.252,0.435,0.382c0.148,0.13,0.301,0.262,0.456,0.397c0.156,0.135,0.315,0.272,0.477,0.412
	c0.163,0.139,0.329,0.281,0.498,0.425s0.342,0.29,0.518,0.438c0.176,0.148,0.356,0.298,0.539,0.45s0.369,0.306,0.558,0.461
	c0.189,0.156,0.382,0.313,0.578,0.472c0.196,0.159,0.395,0.32,0.597,0.482c0.202,0.162,0.408,0.326,0.616,0.491
	c0.208,0.165,0.42,0.332,0.634,0.5c0.215,0.168,0.432,0.337,0.653,0.507c0.221,0.17,0.444,0.342,0.67,0.515
	c0.226,0.173,0.456,0.346,0.688,0.521s0.467,0.35,0.705,0.527c0.238,0.176,0.479,0.354,0.722,0.532
	c0.133,0.089,0.264,0.177,0.394,0.263c0.13,0.086,0.259,0.171,0.386,0.255c0.128,0.084,0.254,0.166,0.379,0.247
	c0.125,0.081,0.249,0.161,0.372,0.24c0.123,0.079,0.245,0.156,0.366,0.232c0.121,0.076,0.241,0.151,0.36,0.225
	c0.119,0.074,0.238,0.147,0.355,0.219c0.118,0.072,0.234,0.143,0.35,0.212c0.116,0.07,0.231,0.138,0.346,0.206
	c0.115,0.068,0.229,0.134,0.343,0.2c0.114,0.066,0.227,0.13,0.339,0.194s0.225,0.127,0.337,0.189
	c0.112,0.062,0.223,0.123,0.335,0.184s0.222,0.12,0.333,0.179c0.111,0.059,0.221,0.117,0.332,0.174
	c0.111,0.057,0.221,0.114,0.331,0.17c0.11,0.056,0.221,0.111,0.331,0.166c0.111,0.055,0.221,0.108,0.332,0.162
	c0.111,0.053,0.222,0.106,0.333,0.158c0.111,0.052,0.223,0.104,0.334,0.155c0.112,0.051,0.224,0.102,0.336,0.152
	s0.226,0.1,0.339,0.149c0.113,0.049,0.228,0.098,0.342,0.146c0.115,0.048,0.23,0.096,0.346,0.144
	c0.116,0.048,0.232,0.095,0.35,0.142c0.117,0.047,0.235,0.094,0.354,0.14c0.119,0.046,0.239,0.093,0.36,0.139
	c0.121,0.046,0.242,0.092,0.365,0.138s0.247,0.091,0.371,0.137c0.125,0.045,0.251,0.091,0.378,0.136
	c0.127,0.045,0.256,0.09,0.385,0.135c0.13,0.045,0.261,0.09,0.393,0.135c0.064,0.022,0.128,0.043,0.191,0.064
	c0.063,0.021,0.125,0.041,0.187,0.061c0.062,0.02,0.123,0.039,0.184,0.058c0.061,0.019,0.121,0.037,0.18,0.054
	c0.06,0.018,0.119,0.035,0.177,0.051c0.059,0.017,0.117,0.033,0.175,0.048c0.058,0.016,0.115,0.031,0.172,0.045
	c0.057,0.015,0.114,0.029,0.17,0.042c0.056,0.014,0.113,0.027,0.168,0.04c0.056,0.013,0.111,0.025,0.167,0.037
	s0.111,0.023,0.166,0.034c0.055,0.011,0.11,0.021,0.165,0.031c0.055,0.01,0.109,0.02,0.164,0.029
	c0.055,0.009,0.109,0.018,0.164,0.026c0.054,0.008,0.109,0.016,0.163,0.024c0.055,0.008,0.109,0.015,0.164,0.022
	c0.055,0.007,0.109,0.013,0.164,0.019c0.055,0.006,0.11,0.012,0.165,0.017c0.055,0.005,0.11,0.01,0.166,0.015
	c0.056,0.005,0.111,0.009,0.167,0.013c0.056,0.004,0.112,0.008,0.169,0.011c0.057,0.003,0.114,0.006,0.171,0.009
	c0.057,0.003,0.115,0.005,0.173,0.007c0.058,0.002,0.117,0.004,0.176,0.005c0.059,0.001,0.119,0.003,0.178,0.004
	c0.06,0.001,0.121,0.002,0.182,0.002c0.061,0,0.123,0,0.185,0c0.062,0,0.125-0.001,0.189-0.001c0.064-0.001,0.128-0.002,0.193-0.003
	c0.065-0.001,0.13-0.003,0.197-0.004c0.066-0.002,0.133-0.003,0.201-0.006c0.068-0.002,0.137-0.004,0.206-0.007
	c0.015-0.001,0.031-0.001,0.048-0.002c0.017-0.001,0.035-0.002,0.055-0.003c0.019-0.001,0.04-0.002,0.061-0.004
	c0.021-0.001,0.044-0.003,0.067-0.005c0.023-0.002,0.047-0.004,0.072-0.006c0.025-0.002,0.05-0.004,0.077-0.006
	c0.026-0.002,0.053-0.005,0.081-0.007c0.028-0.003,0.056-0.005,0.085-0.008c0.029-0.003,0.058-0.006,0.088-0.008
	c0.03-0.003,0.06-0.006,0.091-0.009c0.031-0.003,0.062-0.006,0.094-0.01c0.032-0.003,0.063-0.007,0.095-0.01
	c0.032-0.003,0.064-0.007,0.097-0.011c0.032-0.004,0.065-0.007,0.098-0.011c0.033-0.004,0.065-0.008,0.098-0.012
	c0.033-0.004,0.065-0.008,0.098-0.012c0.033-0.004,0.065-0.008,0.097-0.012c0.032-0.004,0.065-0.008,0.096-0.013
	c0.032-0.004,0.064-0.009,0.095-0.013c0.031-0.004,0.062-0.009,0.093-0.013s0.061-0.009,0.09-0.013
	c0.03-0.004,0.059-0.009,0.087-0.013c0.029-0.004,0.056-0.009,0.084-0.013c0.027-0.004,0.054-0.009,0.08-0.013
	c0.026-0.005,0.051-0.009,0.075-0.013c0.024-0.004,0.048-0.009,0.07-0.013c0.023-0.004,0.044-0.009,0.065-0.013
	c0.021-0.004,0.04-0.009,0.059-0.013c0.019-0.004,0.036-0.009,0.052-0.013c0.016-0.004,0.031-0.009,0.045-0.013
	c0.014-0.004,0.027-0.008,0.038-0.013c0.011-0.004,0.021-0.008,0.03-0.012c0.022,0,0.044,0,0.066-0.001
	c0.022-0.001,0.045-0.001,0.067-0.003c0.023-0.001,0.045-0.003,0.068-0.005c0.023-0.002,0.046-0.004,0.069-0.007
	c0.023-0.003,0.046-0.005,0.07-0.009c0.023-0.003,0.047-0.007,0.07-0.011c0.023-0.004,0.047-0.008,0.071-0.012
	c0.024-0.004,0.047-0.009,0.071-0.014c0.024-0.005,0.048-0.01,0.071-0.016c0.024-0.005,0.048-0.011,0.071-0.017
	c0.024-0.006,0.048-0.012,0.072-0.018c0.024-0.006,0.048-0.013,0.071-0.02c0.024-0.007,0.048-0.014,0.071-0.021
	c0.024-0.007,0.047-0.015,0.071-0.022c0.024-0.008,0.047-0.015,0.071-0.023c0.024-0.008,0.047-0.016,0.07-0.024
	c0.023-0.008,0.047-0.017,0.07-0.025c0.023-0.009,0.046-0.017,0.069-0.026c0.023-0.009,0.046-0.018,0.068-0.027
	c0.023-0.009,0.045-0.018,0.068-0.028c0.022-0.009,0.045-0.019,0.067-0.028c0.022-0.01,0.044-0.019,0.066-0.029
	c0.022-0.01,0.043-0.02,0.064-0.029c0.021-0.01,0.042-0.02,0.063-0.03c0.021-0.01,0.041-0.02,0.062-0.03
	c0.02-0.01,0.041-0.02,0.061-0.03c0.02-0.01,0.04-0.02,0.059-0.03c0.019-0.01,0.038-0.02,0.057-0.031
	c0.019-0.01,0.037-0.02,0.056-0.03c0.018-0.01,0.036-0.02,0.054-0.03c0.018-0.01,0.035-0.02,0.052-0.03
	c0.017-0.01,0.034-0.02,0.05-0.03l0.052-0.028l0.052-0.028l0.052-0.028l0.052-0.028l0.052-0.028l0.052-0.028l0.052-0.028
	l0.052-0.028l0.052-0.028l0.052-0.028l0.052-0.028l0.052-0.028l0.052-0.028l0.052-0.028l0.052-0.028l0.052-0.028l0.052-0.028
	l0.052-0.028l0.052-0.028l0.052-0.028l0.052-0.028l0.052-0.028l0.052-0.028l0.052-0.028l0.052-0.028l0.052-0.028l0.052-0.028
	l0.052-0.028l0.052-0.028l0.052-0.028l0.052-0.028l0.052-0.028c0.029-0.018,0.059-0.036,0.089-0.054
	c0.03-0.018,0.061-0.037,0.092-0.056c0.031-0.019,0.063-0.038,0.095-0.058c0.032-0.02,0.065-0.04,0.098-0.06
	c0.033-0.02,0.066-0.041,0.1-0.062c0.034-0.021,0.068-0.042,0.103-0.063c0.035-0.021,0.07-0.043,0.105-0.064
	c0.035-0.022,0.071-0.043,0.107-0.065c0.036-0.022,0.072-0.044,0.108-0.067c0.036-0.022,0.073-0.045,0.11-0.068
	c0.037-0.023,0.074-0.045,0.111-0.068c0.037-0.023,0.075-0.046,0.112-0.069c0.038-0.023,0.075-0.046,0.113-0.07
	c0.038-0.023,0.076-0.047,0.114-0.07c0.038-0.023,0.076-0.047,0.114-0.07c0.038-0.023,0.076-0.047,0.114-0.07
	c0.038-0.023,0.076-0.047,0.114-0.07c0.038-0.023,0.076-0.047,0.114-0.07s0.076-0.047,0.114-0.07
	c0.038-0.023,0.076-0.047,0.113-0.07c0.038-0.023,0.075-0.046,0.112-0.069c0.037-0.023,0.074-0.046,0.111-0.069
	s0.073-0.045,0.11-0.068c0.036-0.022,0.072-0.045,0.108-0.067c0.036-0.022,0.071-0.044,0.107-0.066s0.07-0.043,0.105-0.065
	c0.035-0.021,0.069-0.042,0.102-0.063c0.034-0.021,0.067-0.041,0.1-0.062c0.033-0.02,0.065-0.04,0.097-0.06
	c0.032-0.02,0.064-0.039,0.095-0.059c0.031-0.019,0.062-0.038,0.092-0.057c0.03-0.019,0.059-0.037,0.088-0.055l0.062-0.039
	l0.062-0.039l0.062-0.039l0.062-0.039l0.062-0.039l0.062-0.039l0.062-0.039l0.062-0.039l0.062-0.039l0.062-0.039l0.062-0.039
	l0.062-0.039l0.062-0.039l0.062-0.039l0.062-0.039l0.062-0.039l0.062-0.039l0.062-0.039l0.062-0.039l0.062-0.039l0.062-0.039
	l0.062-0.039l0.062-0.039l0.062-0.039l0.062-0.039l0.062-0.039l0.062-0.039l0.062-0.039l0.062-0.039l0.062-0.039l0.062-0.039
	l0.062-0.039c0.029-0.018,0.057-0.036,0.084-0.055c0.027-0.019,0.054-0.038,0.08-0.058c0.026-0.02,0.051-0.04,0.075-0.061
	c0.024-0.021,0.047-0.042,0.07-0.064c0.023-0.022,0.044-0.044,0.065-0.066c0.021-0.022,0.041-0.045,0.06-0.069
	c0.019-0.023,0.038-0.047,0.056-0.071c0.018-0.024,0.035-0.048,0.051-0.073c0.016-0.025,0.031-0.049,0.046-0.075
	c0.014-0.025,0.028-0.051,0.041-0.076c0.013-0.026,0.025-0.052,0.036-0.078c0.011-0.026,0.022-0.053,0.031-0.079
	c0.01-0.027,0.018-0.053,0.026-0.081c0.008-0.027,0.015-0.054,0.021-0.082c0.006-0.027,0.012-0.055,0.016-0.083
	c0.005-0.028,0.008-0.055,0.011-0.083c0.003-0.028,0.005-0.056,0.006-0.084c0.001-0.028,0.002-0.056,0.001-0.084
	c0-0.028-0.002-0.056-0.004-0.085c-0.002-0.028-0.005-0.057-0.009-0.085c-0.004-0.028-0.008-0.057-0.014-0.085
	c-0.005-0.028-0.012-0.056-0.019-0.085c-0.007-0.028-0.015-0.056-0.024-0.084c-0.009-0.028-0.019-0.056-0.029-0.084
	c-0.011-0.028-0.022-0.056-0.034-0.083c-0.012-0.028-0.025-0.055-0.039-0.082c-0.014-0.027-0.029-0.054-0.044-0.081
	c-0.016-0.027-0.032-0.054-0.05-0.08c-0.017-0.027-0.036-0.053-0.055-0.079c-0.019-0.026-0.039-0.052-0.06-0.077
	c-0.021-0.026-0.043-0.051-0.065-0.076c-0.023-0.025-0.046-0.05-0.071-0.074l-0.138-0.138l-0.138-0.138l-0.138-0.138l-0.138-0.138
	l-0.138-0.138l-0.138-0.138L56.66,49.66l-0.138-0.138l-0.138-0.138l-0.138-0.138L56.11,49.11l-0.138-0.138l-0.138-0.138
	l-0.138-0.138l-0.138-0.138l-0.138-0.138l-0.138-0.138l-0.138-0.138l-0.138-0.138l-0.138-0.138l-0.138-0.138l-0.138-0.138
	l-0.138-0.138L54.32,47.32l-0.138-0.138l-0.138-0.138l-0.138-0.138L53.77,46.77l-0.138-0.138l-0.138-0.138l-0.138-0.138
	l-0.138-0.138c-0.024-0.024-0.049-0.049-0.075-0.075c-0.025-0.025-0.051-0.051-0.077-0.077s-0.053-0.053-0.08-0.08
	c-0.027-0.027-0.054-0.054-0.082-0.082c-0.028-0.028-0.056-0.056-0.084-0.084s-0.057-0.057-0.086-0.086
	c-0.029-0.029-0.059-0.059-0.088-0.088s-0.06-0.06-0.09-0.09c-0.03-0.03-0.061-0.061-0.091-0.091
	c-0.031-0.031-0.062-0.062-0.093-0.093c-0.031-0.031-0.062-0.062-0.094-0.094c-0.031-0.031-0.063-0.063-0.095-0.095
	c-0.032-0.032-0.063-0.063-0.095-0.095c-0.032-0.032-0.064-0.064-0.096-0.096c-0.032-0.032-0.064-0.064-0.096-0.096
	S51.832,44.832,51.8,44.8c-0.032-0.032-0.064-0.064-0.096-0.096s-0.064-0.064-0.096-0.096c-0.032-0.032-0.064-0.064-0.096-0.096
	c-0.032-0.032-0.064-0.064-0.095-0.095s-0.063-0.063-0.095-0.095c-0.031-0.031-0.063-0.063-0.094-0.094s-0.062-0.062-0.093-0.093
	c-0.031-0.031-0.061-0.061-0.091-0.091c-0.03-0.03-0.06-0.06-0.09-0.09c-0.03-0.03-0.059-0.059-0.088-0.088
	c-0.029-0.029-0.058-0.058-0.086-0.086c-0.028-0.028-0.057-0.057-0.084-0.084c-0.028-0.028-0.055-0.055-0.082-0.082
	c-0.027-0.027-0.054-0.054-0.08-0.08s-0.052-0.052-0.077-0.077s-0.05-0.05-0.075-0.075l-0.138-0.138l-0.138-0.138l-0.138-0.138
	L49.83,42.83l-0.138-0.138l-0.138-0.138l-0.138-0.138L49.28,42.28l-0.138-0.138l-0.138-0.138l-0.138-0.138l-0.138-0.138
	l-0.138-0.138l-0.138-0.138l-0.138-0.138l-0.138-0.138l-0.138-0.138l-0.138-0.138l-0.138-0.138l-0.138-0.138L47.49,40.49
	l-0.138-0.138l-0.138-0.138l-0.138-0.138L46.94,39.94l-0.138-0.138l-0.138-0.138l-0.138-0.138l-0.138-0.138l-0.138-0.138
	l-0.138-0.138l-0.138-0.138c-0.024-0.024-0.049-0.048-0.074-0.071c-0.025-0.023-0.05-0.044-0.076-0.065
	c-0.026-0.021-0.052-0.041-0.078-0.06c-0.026-0.019-0.053-0.038-0.079-0.055c-0.027-0.018-0.054-0.034-0.081-0.05
	c-0.027-0.016-0.055-0.031-0.082-0.045c-0.028-0.014-0.055-0.027-0.083-0.04c-0.028-0.012-0.056-0.024-0.084-0.035
	c-0.028-0.011-0.057-0.021-0.085-0.03c-0.028-0.009-0.057-0.017-0.086-0.025c-0.029-0.007-0.057-0.014-0.086-0.02
	c-0.029-0.006-0.058-0.011-0.086-0.015c-0.029-0.004-0.058-0.007-0.086-0.01c-0.029-0.002-0.058-0.004-0.086-0.005
	c-0.029-0.001-0.058-0.001-0.086,0c-0.029,0.001-0.057,0.003-0.086,0.005c-0.029,0.003-0.057,0.006-0.085,0.01
	c-0.028,0.004-0.057,0.009-0.085,0.015c-0.028,0.006-0.056,0.012-0.084,0.02c-0.028,0.007-0.055,0.016-0.083,0.025
	c-0.027,0.009-0.055,0.019-0.082,0.03c-0.027,0.011-0.054,0.022-0.08,0.034c-0.027,0.012-0.053,0.025-0.079,0.039
	s-0.052,0.029-0.077,0.044s-0.051,0.032-0.075,0.049c-0.025,0.017-0.049,0.035-0.074,0.054c-0.024,0.019-0.048,0.038-0.071,0.059
	c-0.023,0.02-0.046,0.041-0.069,0.063c-0.023,0.022-0.045,0.045-0.067,0.068s-0.043,0.048-0.064,0.073
	c-0.021,0.025-0.041,0.051-0.061,0.078c-0.02,0.027-0.039,0.054-0.058,0.082l-0.04,0.06l-0.04,0.06l-0.04,0.06l-0.04,0.06
	l-0.04,0.06l-0.04,0.06l-0.04,0.06l-0.04,0.06l-0.04,0.06l-0.04,0.06l-0.04,0.06l-0.04,0.06l-0.04,0.06l-0.04,0.06l-0.04,0.06
	l-0.04,0.06l-0.04,0.06l-0.04,0.06l-0.04,0.06l-0.04,0.06l-0.04,0.06l-0.04,0.06l-0.04,0.06l-0.04,0.06l-0.04,0.06l-0.04,0.06
	l-0.04,0.06l-0.04,0.06l-0.04,0.06l-0.04,0.06l-0.04,0.06l-0.04,0.06c-0.019,0.028-0.038,0.057-0.058,0.086
	c-0.02,0.029-0.04,0.059-0.06,0.089c-0.02,0.03-0.041,0.061-0.062,0.092c-0.021,0.031-0.042,0.063-0.064,0.095
	c-0.022,0.032-0.043,0.065-0.066,0.098c-0.022,0.033-0.044,0.066-0.067,0.1c-0.023,0.034-0.045,0.068-0.068,0.102
	c-0.023,0.034-0.046,0.069-0.07,0.104s-0.047,0.07-0.071,0.106c-0.024,0.035-0.048,0.071-0.072,0.107
	c-0.024,0.036-0.048,0.072-0.073,0.108c-0.024,0.036-0.049,0.073-0.073,0.109c-0.025,0.037-0.049,0.073-0.074,0.11
	c-0.025,0.037-0.05,0.074-0.074,0.111c-0.025,0.037-0.05,0.074-0.075,0.111c-0.025,0.037-0.05,0.074-0.075,0.112
	c-0.025,0.037-0.05,0.074-0.075,0.112c-0.025,0.037-0.05,0.074-0.075,0.111c-0.025,0.037-0.05,0.074-0.074,0.111
	c-0.025,0.037-0.049,0.074-0.074,0.11c-0.025,0.037-0.049,0.073-0.073,0.109c-0.024,0.036-0.049,0.072-0.073,0.108
	c-0.024,0.036-0.048,0.072-0.072,0.107c-0.024,0.035-0.047,0.071-0.071,0.106c-0.023,0.035-0.047,0.07-0.07,0.104
	c-0.023,0.034-0.046,0.068-0.069,0.102c-0.023,0.034-0.045,0.067-0.067,0.1c-0.022,0.033-0.044,0.066-0.066,0.098
	c-0.022,0.032-0.043,0.064-0.064,0.095c-0.021,0.031-0.042,0.062-0.062,0.092c-0.02,0.03-0.04,0.06-0.06,0.089
	c-0.02,0.029-0.039,0.058-0.058,0.086l-0.04,0.06l-0.04,0.06l-0.04,0.06l-0.04,0.06l-0.04,0.06l-0.04,0.06l-0.04,0.06l-0.04,0.06
	l-0.04,0.06l-0.04,0.06l-0.04,0.06l-0.04,0.06l-0.04,0.06l-0.04,0.06l-0.04,0.06l-0.04,0.06l-0.04,0.06l-0.04,0.06l-0.04,0.06
	l-0.04,0.06l-0.04,0.06l-0.04,0.06l-0.04,0.06l-0.04,0.06l-0.04,0.06l-0.04,0.06l-0.04,0.06l-0.04,0.06l-0.04,0.06l-0.04,0.06
	l-0.04,0.06l-0.04,0.06c-0.006,0.009-0.012,0.018-0.018,0.027c-0.006,0.009-0.012,0.018-0.017,0.027
	c-0.006,0.009-0.011,0.018-0.017,0.028c-0.006,0.009-0.011,0.019-0.016,0.028c-0.005,0.009-0.011,0.019-0.016,0.028
	c-0.005,0.009-0.01,0.019-0.015,0.029c-0.005,0.01-0.01,0.019-0.015,0.029c-0.005,0.01-0.01,0.019-0.015,0.029
	c-0.005,0.01-0.009,0.019-0.014,0.029c-0.005,0.01-0.009,0.02-0.014,0.029s-0.009,0.02-0.013,0.03
	c-0.004,0.01-0.009,0.02-0.013,0.03c-0.004,0.01-0.008,0.02-0.012,0.03c-0.004,0.01-0.008,0.02-0.012,0.03
	c-0.004,0.01-0.008,0.02-0.011,0.031c-0.004,0.01-0.007,0.02-0.011,0.031c-0.004,0.01-0.007,0.021-0.01,0.031
	c-0.003,0.01-0.007,0.021-0.01,0.031c-0.003,0.01-0.006,0.021-0.01,0.031c-0.003,0.01-0.006,0.021-0.009,0.031
	c-0.003,0.01-0.006,0.021-0.009,0.032c-0.003,0.011-0.006,0.021-0.008,0.032c-0.003,0.011-0.005,0.021-0.008,0.032
	c-0.003,0.011-0.005,0.021-0.007,0.032c-0.002,0.011-0.005,0.021-0.007,0.032c-0.002,0.011-0.005,0.021-0.007,0.032
	c-0.002,0.011-0.004,0.022-0.006,0.032c-0.002,0.011-0.004,0.022-0.006,0.032c-0.002,0.011-0.004,0.022-0.005,0.033
	c-0.002,0.011-0.003,0.022-0.005,0.033s-0.003,0.022-0.005,0.033c-0.002,0.011-0.003,0.022-0.004,0.033
	c-0.069-0.032-0.14-0.066-0.213-0.102c-0.073-0.036-0.148-0.074-0.224-0.114c-0.077-0.04-0.155-0.083-0.236-0.127
	c-0.081-0.045-0.164-0.092-0.249-0.141c-0.085-0.049-0.172-0.101-0.262-0.156c-0.089-0.054-0.181-0.112-0.275-0.171
	c-0.094-0.06-0.191-0.122-0.29-0.188c-0.099-0.065-0.201-0.134-0.305-0.205c-0.104-0.071-0.211-0.145-0.321-0.223
	c-0.11-0.077-0.222-0.158-0.337-0.242c-0.115-0.084-0.233-0.171-0.354-0.261c-0.121-0.09-0.245-0.184-0.372-0.282
	s-0.257-0.198-0.39-0.303c-0.133-0.105-0.27-0.213-0.41-0.325c-0.14-0.112-0.283-0.228-0.429-0.348
	c-0.147-0.12-0.296-0.244-0.45-0.372c-0.153-0.128-0.31-0.26-0.471-0.397c-0.161-0.136-0.325-0.277-0.493-0.422
	c-0.168-0.145-0.34-0.295-0.515-0.449c-0.176-0.154-0.355-0.312-0.538-0.476c-0.183-0.163-0.371-0.331-0.562-0.504
	c-0.192-0.173-0.387-0.35-0.587-0.532c-0.2-0.182-0.404-0.37-0.612-0.562c-0.208-0.192-0.421-0.39-0.638-0.593
	c-0.217-0.203-0.438-0.411-0.664-0.624c-0.226-0.213-0.456-0.432-0.692-0.656c-0.235-0.224-0.475-0.454-0.72-0.689
	c-0.245-0.235-0.494-0.476-0.748-0.723c-0.254-0.247-0.513-0.499-0.777-0.757c-0.233-0.228-0.472-0.463-0.714-0.701
	c-0.238-0.241-0.473-0.48-0.701-0.714c-0.258-0.264-0.511-0.523-0.757-0.777c-0.247-0.254-0.487-0.504-0.723-0.748
	c-0.235-0.245-0.465-0.484-0.689-0.72c-0.224-0.235-0.443-0.466-0.656-0.692c-0.213-0.226-0.421-0.447-0.624-0.664
	c-0.203-0.217-0.4-0.43-0.593-0.638c-0.192-0.208-0.38-0.412-0.562-0.612c-0.182-0.2-0.36-0.395-0.532-0.587
	c-0.173-0.191-0.34-0.379-0.504-0.562c-0.163-0.183-0.322-0.363-0.476-0.538c-0.154-0.176-0.303-0.347-0.449-0.515
	c-0.145-0.168-0.286-0.332-0.422-0.493c-0.136-0.161-0.269-0.318-0.397-0.471c-0.128-0.153-0.252-0.303-0.372-0.45
	c-0.12-0.146-0.236-0.29-0.348-0.429c-0.112-0.14-0.221-0.276-0.325-0.41c-0.105-0.133-0.206-0.263-0.303-0.39
	c-0.097-0.127-0.191-0.251-0.282-0.372s-0.178-0.239-0.261-0.354c-0.084-0.115-0.164-0.227-0.242-0.337
	c-0.077-0.11-0.152-0.216-0.223-0.321c-0.071-0.104-0.139-0.206-0.205-0.305c-0.065-0.099-0.128-0.196-0.188-0.29
	c-0.06-0.094-0.117-0.186-0.171-0.275c-0.054-0.089-0.106-0.177-0.156-0.262c-0.049-0.085-0.096-0.168-0.141-0.249
	s-0.087-0.159-0.127-0.236c-0.04-0.077-0.078-0.152-0.114-0.224c-0.036-0.073-0.07-0.144-0.102-0.213
	c0.011-0.001,0.022-0.003,0.033-0.004s0.022-0.003,0.033-0.005c0.011-0.002,0.022-0.003,0.033-0.005
	c0.011-0.002,0.022-0.004,0.033-0.005c0.011-0.002,0.022-0.004,0.032-0.006c0.011-0.002,0.022-0.004,0.032-0.006
	c0.011-0.002,0.022-0.004,0.032-0.007c0.011-0.002,0.021-0.005,0.032-0.007c0.011-0.002,0.021-0.005,0.032-0.008
	c0.011-0.003,0.021-0.005,0.032-0.008c0.011-0.003,0.021-0.005,0.032-0.008c0.011-0.003,0.021-0.006,0.032-0.009
	c0.011-0.003,0.021-0.006,0.031-0.009s0.021-0.006,0.031-0.01c0.01-0.003,0.021-0.007,0.031-0.01c0.01-0.003,0.021-0.007,0.031-0.01
	c0.01-0.004,0.021-0.007,0.031-0.011c0.01-0.004,0.02-0.007,0.031-0.011c0.01-0.004,0.02-0.008,0.03-0.012
	c0.01-0.004,0.02-0.008,0.03-0.012c0.01-0.004,0.02-0.008,0.03-0.013c0.01-0.004,0.02-0.009,0.03-0.013s0.02-0.009,0.03-0.014
	c0.01-0.005,0.02-0.009,0.029-0.014c0.01-0.005,0.019-0.01,0.029-0.015c0.01-0.005,0.019-0.01,0.029-0.015
	c0.01-0.005,0.019-0.01,0.029-0.015c0.009-0.005,0.019-0.011,0.028-0.016c0.009-0.005,0.019-0.011,0.028-0.016
	c0.009-0.006,0.019-0.011,0.028-0.017c0.009-0.006,0.018-0.012,0.027-0.017c0.009-0.006,0.018-0.012,0.027-0.018l0.06-0.04
	l0.06-0.04l0.06-0.04l0.06-0.04l0.06-0.04l0.06-0.04l0.06-0.04l0.06-0.04l0.06-0.04l0.06-0.04l0.06-0.04l0.06-0.04l0.06-0.04
	l0.06-0.04l0.06-0.04l0.06-0.04l0.06-0.04l0.06-0.04l0.06-0.04l0.06-0.04l0.06-0.04l0.06-0.04l0.06-0.04l0.06-0.04l0.06-0.04
	l0.06-0.04l0.06-0.04l0.06-0.04l0.06-0.04l0.06-0.04l0.06-0.04l0.06-0.04c0.028-0.019,0.057-0.038,0.086-0.058
	c0.029-0.02,0.059-0.04,0.089-0.06c0.03-0.02,0.061-0.041,0.092-0.062c0.031-0.021,0.063-0.042,0.095-0.064
	c0.032-0.022,0.065-0.043,0.098-0.066s0.066-0.044,0.1-0.067c0.034-0.023,0.068-0.045,0.102-0.069
	c0.034-0.023,0.069-0.046,0.104-0.07c0.035-0.023,0.07-0.047,0.106-0.071c0.035-0.024,0.071-0.048,0.107-0.072
	c0.036-0.024,0.072-0.048,0.108-0.073c0.036-0.024,0.073-0.049,0.109-0.073c0.037-0.025,0.073-0.049,0.11-0.074
	c0.037-0.025,0.074-0.05,0.111-0.074c0.037-0.025,0.074-0.05,0.111-0.075c0.037-0.025,0.074-0.05,0.112-0.075
	c0.037-0.025,0.074-0.05,0.112-0.075c0.037-0.025,0.074-0.05,0.111-0.075c0.037-0.025,0.074-0.05,0.111-0.074
	s0.074-0.049,0.11-0.074c0.037-0.025,0.073-0.049,0.109-0.073c0.036-0.024,0.072-0.049,0.108-0.073
	c0.036-0.024,0.072-0.048,0.107-0.072s0.071-0.047,0.106-0.071c0.035-0.023,0.07-0.047,0.104-0.07
	c0.034-0.023,0.068-0.046,0.102-0.068c0.034-0.023,0.067-0.045,0.1-0.067c0.033-0.022,0.065-0.044,0.098-0.066
	c0.032-0.022,0.064-0.043,0.095-0.064c0.031-0.021,0.062-0.042,0.092-0.062c0.03-0.02,0.06-0.04,0.089-0.06
	c0.029-0.02,0.058-0.039,0.086-0.058l0.06-0.04l0.06-0.04l0.06-0.04l0.06-0.04l0.06-0.04l0.06-0.04l0.06-0.04l0.06-0.04l0.06-0.04
	l0.06-0.04l0.06-0.04l0.06-0.04l0.06-0.04l0.06-0.04l0.06-0.04l0.06-0.04l0.06-0.04l0.06-0.04l0.06-0.04l0.06-0.04l0.06-0.04
	l0.06-0.04l0.06-0.04l0.06-0.04l0.06-0.04l0.06-0.04l0.06-0.04l0.06-0.04l0.06-0.04l0.06-0.04l0.06-0.04l0.06-0.04
	c0.028-0.019,0.056-0.038,0.082-0.058c0.027-0.02,0.052-0.04,0.078-0.061c0.025-0.021,0.049-0.042,0.073-0.064
	c0.023-0.022,0.046-0.044,0.068-0.067c0.022-0.023,0.043-0.046,0.063-0.069s0.04-0.047,0.059-0.071
	c0.019-0.024,0.037-0.049,0.054-0.074c0.017-0.025,0.033-0.05,0.049-0.075c0.016-0.025,0.03-0.051,0.044-0.077
	c0.014-0.026,0.027-0.052,0.039-0.079c0.012-0.027,0.024-0.053,0.034-0.08c0.011-0.027,0.021-0.054,0.03-0.082
	c0.009-0.027,0.017-0.055,0.025-0.083c0.007-0.028,0.014-0.056,0.02-0.084c0.006-0.028,0.011-0.056,0.015-0.085
	c0.004-0.028,0.007-0.057,0.01-0.085c0.003-0.029,0.004-0.057,0.005-0.086c0.001-0.029,0.001-0.057,0-0.086
	c-0.001-0.029-0.002-0.058-0.005-0.086c-0.002-0.029-0.006-0.058-0.01-0.086c-0.004-0.029-0.009-0.058-0.015-0.086
	c-0.006-0.029-0.012-0.057-0.02-0.086c-0.007-0.029-0.016-0.057-0.025-0.086c-0.009-0.028-0.019-0.057-0.03-0.085
	c-0.011-0.028-0.022-0.056-0.035-0.084c-0.012-0.028-0.026-0.056-0.04-0.083c-0.014-0.028-0.029-0.055-0.045-0.082
	c-0.016-0.027-0.033-0.054-0.05-0.081c-0.018-0.027-0.036-0.053-0.055-0.079c-0.019-0.026-0.039-0.052-0.06-0.078
	c-0.021-0.026-0.043-0.051-0.065-0.076c-0.023-0.025-0.046-0.05-0.071-0.074l-0.138-0.138l-0.138-0.138l-0.138-0.138l-0.138-0.138
	l-0.138-0.138l-0.138-0.138l-0.138-0.138l-0.138-0.138l-0.138-0.138l-0.138-0.138l-0.138-0.138L19.5,12.5l-0.138-0.138l-0.138-0.138
	l-0.138-0.138L18.95,11.95l-0.138-0.138l-0.138-0.138l-0.138-0.138l-0.138-0.138l-0.138-0.138l-0.138-0.138l-0.138-0.138
	l-0.138-0.138l-0.138-0.138l-0.138-0.138l-0.138-0.138l-0.138-0.138l-0.138-0.138l-0.138-0.138l-0.138-0.138l-0.138-0.138
	c-0.024-0.024-0.049-0.049-0.075-0.075c-0.025-0.025-0.051-0.051-0.077-0.077c-0.026-0.026-0.053-0.053-0.08-0.08
	c-0.027-0.027-0.054-0.054-0.082-0.082s-0.056-0.056-0.084-0.084c-0.028-0.028-0.057-0.057-0.086-0.086s-0.059-0.059-0.088-0.088
	c-0.03-0.03-0.06-0.06-0.09-0.09c-0.03-0.03-0.061-0.061-0.091-0.091c-0.031-0.031-0.062-0.062-0.093-0.093
	c-0.031-0.031-0.062-0.062-0.094-0.094c-0.031-0.031-0.063-0.063-0.095-0.095c-0.032-0.032-0.063-0.063-0.095-0.095
	c-0.032-0.032-0.064-0.064-0.096-0.096c-0.032-0.032-0.064-0.064-0.096-0.096c-0.032-0.032-0.064-0.064-0.096-0.096
	c-0.032-0.032-0.064-0.064-0.096-0.096C15.2,8.2,15.168,8.168,15.136,8.136c-0.032-0.032-0.064-0.064-0.096-0.096
	c-0.032-0.032-0.064-0.064-0.095-0.095c-0.032-0.032-0.063-0.063-0.095-0.095s-0.063-0.063-0.094-0.094
	c-0.031-0.031-0.062-0.062-0.093-0.093c-0.031-0.031-0.061-0.061-0.091-0.091c-0.03-0.03-0.06-0.06-0.09-0.09
	c-0.03-0.03-0.059-0.059-0.088-0.088s-0.058-0.058-0.086-0.086c-0.028-0.028-0.057-0.057-0.084-0.084
	c-0.028-0.028-0.055-0.055-0.082-0.082c-0.027-0.027-0.054-0.054-0.08-0.08c-0.026-0.026-0.052-0.052-0.077-0.077
	c-0.025-0.025-0.05-0.05-0.075-0.075l-0.138-0.138l-0.138-0.138l-0.138-0.138l-0.138-0.138l-0.138-0.138l-0.138-0.138l-0.138-0.138
	l-0.138-0.138L12.67,5.67l-0.138-0.138l-0.138-0.138l-0.138-0.138L12.12,5.12l-0.138-0.138l-0.138-0.138l-0.138-0.138l-0.138-0.138
	l-0.138-0.138l-0.138-0.138l-0.138-0.138l-0.138-0.138l-0.138-0.138l-0.138-0.138l-0.138-0.138l-0.138-0.138L10.33,3.33
	l-0.138-0.138l-0.138-0.138L9.918,2.918L9.78,2.78L9.642,2.642L9.505,2.505C9.48,2.48,9.456,2.457,9.431,2.434
	C9.406,2.412,9.38,2.39,9.355,2.369c-0.026-0.021-0.051-0.041-0.077-0.06C9.251,2.29,9.225,2.271,9.198,2.254
	c-0.027-0.017-0.053-0.034-0.08-0.05C9.091,2.189,9.064,2.174,9.037,2.16C9.009,2.146,8.982,2.133,8.954,2.12
	C8.927,2.108,8.899,2.097,8.871,2.086c-0.028-0.011-0.056-0.02-0.084-0.029C8.76,2.048,8.732,2.04,8.703,2.033
	C8.675,2.026,8.647,2.02,8.619,2.014c-0.028-0.005-0.057-0.01-0.085-0.014C8.506,1.997,8.477,1.994,8.449,1.992
	C8.421,1.99,8.393,1.989,8.365,1.988c-0.028,0-0.056,0-0.084,0.001C8.252,1.991,8.224,1.993,8.196,1.996
	C8.168,1.999,8.141,2.003,8.113,2.007C8.085,2.012,8.058,2.017,8.03,2.024C8.003,2.03,7.976,2.037,7.949,2.045
	C7.922,2.053,7.895,2.062,7.868,2.071c-0.027,0.01-0.053,0.02-0.079,0.031C7.763,2.114,7.737,2.126,7.711,2.139
	C7.685,2.151,7.66,2.165,7.635,2.18C7.61,2.194,7.585,2.209,7.56,2.226C7.536,2.242,7.511,2.259,7.487,2.276
	C7.464,2.294,7.44,2.312,7.417,2.332c-0.023,0.019-0.046,0.039-0.069,0.06C7.326,2.413,7.304,2.435,7.282,2.457
	C7.26,2.48,7.239,2.503,7.218,2.527z"/>
</svg>
